<?xml version="1.0" encoding="UTF-8" standalone="no"?>
<svg width="50px" height="47px" viewBox="0 0 50 47" version="1.1" xmlns="http://www.w3.org/2000/svg" xmlns:xlink="http://www.w3.org/1999/xlink">
    <!-- Generator: Sketch 45.1 (43504) - http://www.bohemiancoding.com/sketch -->
    <title>Icon</title>
    <desc>Created with Sketch.</desc>
    <defs></defs>
    <g id="Page-1" stroke="none" stroke-width="1" fill="none" fill-rule="evenodd" stroke-linecap="round">
        <g id="Artboard-1" transform="translate(-605.000000, -1308.000000)" stroke="#EEF5DB" stroke-width="4">
            <g id="Icon" transform="translate(607.000000, 1310.000000)">
                <path d="M1.6199,16 L44.3789,16 C45.0069,16 45.3719,16.107 45.1879,16.796 L38.6719,41.517 C38.4909,42.194 37.9999,43 37.5709,43 L8.4289,43 C8.0009,43 7.5109,41.99 7.3279,41.301 L0.8109,17.032 C0.6309,16.355 0.9899,16 1.6199,16 L1.6199,16 Z" id="Stroke-168"></path>
                <path d="M17.3107,0.0558 L5.2837,15.0088" id="Stroke-170"></path>
                <path d="M28.8916,0.0628 L40.5146,15.0018" id="Stroke-172"></path>
                <path d="M14,25 L14,33" id="Stroke-174"></path>
                <path d="M32,25 L32,33" id="Stroke-176"></path>
                <path d="M23,25 L23,33" id="Stroke-178"></path>
            </g>
        </g>
    </g>
</svg>
