<?xml version="1.0" encoding="UTF-8" standalone="no"?>
<svg width="42px" height="42px" viewBox="0 0 42 42" version="1.1" xmlns="http://www.w3.org/2000/svg" xmlns:xlink="http://www.w3.org/1999/xlink">
    <!-- Generator: Sketch 45.1 (43504) - http://www.bohemiancoding.com/sketch -->
    <title>Icon</title>
    <desc>Created with Sketch.</desc>
    <defs></defs>
    <g id="Page-1" stroke="none" stroke-width="1" fill="none" fill-rule="evenodd" stroke-linecap="round">
        <g id="Artboard-1" transform="translate(-1026.000000, -1310.000000)" stroke="#EEF5DB" stroke-width="4">
            <g id="Icon" transform="translate(1028.000000, 1312.000000)">
                <path d="M38,37 C38,37.552 37.552,38 37,38 L1,38 C0.448,38 0,37.552 0,37 L0,5 C0,4.448 0.448,4 1,4 L37,4 C37.552,4 38,4.448 38,5 L38,37 L38,37 Z" id="Stroke-192"></path>
                <path d="M1,14 L37,14" id="Stroke-194"></path>
                <path d="M9,0 L9,8" id="Stroke-196"></path>
                <path d="M29,8 L29,0" id="Stroke-198"></path>
                <polyline id="Stroke-200" stroke-linejoin="round" points="11.3048 24.8784 16.6968 30.4094 27.3048 20.4094"></polyline>
            </g>
        </g>
    </g>
</svg>