<?xml version="1.0" encoding="UTF-8" standalone="no"?>
<svg width="46px" height="42px" viewBox="0 0 46 42" version="1.1" xmlns="http://www.w3.org/2000/svg" xmlns:xlink="http://www.w3.org/1999/xlink">
    <!-- Generator: Sketch 45.1 (43504) - http://www.bohemiancoding.com/sketch -->
    <title>Icon</title>
    <desc>Created with Sketch.</desc>
    <defs></defs>
    <g id="Page-1" stroke="none" stroke-width="1" fill="none" fill-rule="evenodd" stroke-linecap="round" stroke-linejoin="round">
        <g id="Artboard-1" transform="translate(-885.000000, -1729.000000)" stroke="#fff" stroke-width="4">
            <g id="Icon" transform="translate(886.000000, 1731.000000)">
                <path d="M10.9278,26.6764222 L21.6528,37.4346444 C21.8448,37.6263333 22.1578,37.6238 22.3468,37.4346444 L33.0868,26.6620667" id="Stroke-136"></path>
                <path d="M2.9739,14.3910222 C2.1309,13.4097778 1.5239,12.2782222 1.2199,11.0546222 C1.0759,10.4736444 0.9999,9.8724 0.9999,9.25595556 C0.9999,4.37675556 5.7449,0.422222222 11.5979,0.422222222 C16.4269,0.422222222 20.5009,3.11431111 21.7799,6.79524444 L22.2209,6.80284444 C23.4989,3.12106667 27.5729,0.428977778 32.4019,0.428977778 C38.2549,0.428977778 42.9999,4.38435556 42.9999,9.26271111 C42.9999,9.87915556 42.9239,10.4812444 42.7799,11.0613778 C42.4679,12.3204444 41.8339,13.4807111 40.9539,14.4813778" id="Stroke-138"></path>
                <polyline id="Stroke-140" points="0.9773 20.8213822 9.1373 20.6938711 13.6733 14.9710711 20.2093 24.8595156 25.7753 21.1110267 42.0003 21.1110267"></polyline>
            </g>
        </g>
    </g>
</svg>
